<svg width="24" height="24" viewBox="0 0 24 24" fill="none" xmlns="http://www.w3.org/2000/svg">
<path fillRule="evenodd" clipRule="evenodd" d="M7.76 6.714C7.76 5.627 6.865 4.742 5.762 4.742C4.662 4.742 3.765 5.627 3.765 6.714C3.765 7.801 4.661 8.686 5.762 8.686C6.865 8.686 7.76 7.801 7.76 6.714ZM9.525 6.714C9.525 8.761 7.838 10.428 5.762 10.428C3.688 10.428 2 8.76 2 6.714C2 4.666 3.688 3 5.762 3C7.838 3 9.525 4.666 9.525 6.714ZM22 6.714C21.9984 6.48158 21.9046 6.25929 21.7393 6.09597C21.5739 5.93266 21.3504 5.84167 21.118 5.843L13.883 5.843C13.7678 5.84221 13.6536 5.86411 13.5469 5.90746C13.4402 5.9508 13.3431 6.01474 13.2611 6.09562C13.1791 6.1765 13.1138 6.27274 13.069 6.37884C13.0242 6.48494 13.0008 6.59883 13 6.714C13 7.194 13.395 7.584 13.883 7.584L21.118 7.584C21.605 7.585 22 7.194 22 6.714ZM16.24 17.286C16.24 18.373 17.135 19.258 18.237 19.258C19.34 19.258 20.235 18.373 20.235 17.286C20.235 16.198 19.34 15.314 18.237 15.314C17.135 15.314 16.24 16.198 16.24 17.286ZM14.475 17.286C14.475 15.238 16.162 13.572 18.237 13.572C20.313 13.572 22 15.238 22 17.286C22 19.334 20.313 21 18.237 21C16.162 21 14.475 19.334 14.475 17.286ZM2.883 16.415H10.117C10.604 16.415 10.999 16.805 10.999 17.285C10.999 17.767 10.604 18.157 10.117 18.157H2.883C2.65058 18.1583 2.42713 18.0673 2.26175 17.904C2.09637 17.7407 2.00259 17.5184 2.001 17.286C2.001 16.806 2.396 16.415 2.883 16.415Z" fill="#131416"/>
</svg>
